<svg width="60" height="59" viewBox="0 0 60 59" fill="none" xmlns="http://www.w3.org/2000/svg">
<path d="M30.2694 5.68629C38.0917 5.68629 39.0182 5.71604 42.1074 5.8568C44.9637 5.98726 46.5151 6.46447 47.5475 6.86569C48.9148 7.39714 49.8908 8.03205 50.9159 9.05719C51.9413 10.0823 52.576 11.0583 53.1074 12.4256C53.5086 13.458 53.9858 15.0094 54.1163 17.8655C54.2571 20.9549 54.2868 21.8814 54.2868 29.7037C54.2868 37.5263 54.2571 38.4528 54.1163 41.5419C53.9858 44.3983 53.5086 45.9494 53.1074 46.9819C52.576 48.3492 51.941 49.3253 50.9159 50.3505C49.8908 51.3756 48.9148 52.0105 47.5475 52.5417C46.5151 52.943 44.9637 53.4204 42.1074 53.5506C39.0187 53.6916 38.0922 53.7214 30.2694 53.7214C22.4464 53.7214 21.5199 53.6916 18.4312 53.5506C15.5748 53.4202 14.0237 52.943 12.9912 52.5417C11.6239 52.0105 10.6478 51.3756 9.62263 50.3505C8.59749 49.3251 7.96259 48.3492 7.43136 46.9819C7.03014 45.9496 6.5527 44.3983 6.42247 41.5419C6.28149 38.4528 6.25173 37.5263 6.25173 29.7037C6.25173 21.8814 6.28149 20.9549 6.42247 17.8657C6.55293 15.0094 7.03014 13.458 7.43136 12.4256C7.96259 11.0583 8.59749 10.0823 9.62263 9.05719C10.648 8.03182 11.6239 7.39714 12.9912 6.86569C14.0235 6.46447 15.5748 5.98726 18.4312 5.8568C21.5203 5.71604 22.4468 5.68629 30.2694 5.68629ZM30.2694 0.407471C22.3129 0.407471 21.3153 0.441116 18.1906 0.583706C15.0722 0.726067 12.9425 1.22136 11.0792 1.94552C9.15252 2.69418 7.51879 3.69597 5.89011 5.32466C4.26142 6.95335 3.25985 8.58707 2.5112 10.5135C1.7868 12.377 1.29174 14.5067 1.14938 17.625C1.00679 20.7496 0.973145 21.7473 0.973145 29.7037C0.973145 37.6602 1.00679 38.6578 1.14938 41.7825C1.29174 44.9009 1.7868 47.0306 2.5112 48.8939C3.25962 50.8204 4.26142 52.4543 5.89011 54.083C7.51879 55.7117 9.15252 56.7132 11.0792 57.4619C12.9427 58.1863 15.0722 58.6814 18.1904 58.8237C21.3153 58.9663 22.3129 59 30.2694 59C38.2258 59 39.2235 58.9663 42.3481 58.8237C45.4664 58.6814 47.5961 58.1863 49.4593 57.4619C51.386 56.7135 53.0197 55.7117 54.6484 54.083C56.2771 52.4543 57.2789 50.8206 58.0276 48.8939C58.7517 47.0304 59.247 44.9009 59.3894 41.7827C59.532 38.6578 59.5656 37.6602 59.5656 29.7037C59.5656 21.7473 59.532 20.7496 59.3894 17.625C59.247 14.5067 58.7517 12.377 58.0276 10.5138C57.2789 8.58707 56.2771 6.95335 54.6484 5.32466C53.0197 3.69597 51.386 2.69395 49.4596 1.94552C47.5961 1.22136 45.4664 0.726067 42.3481 0.583706C39.2235 0.441116 38.2258 0.407471 30.2694 0.407471ZM30.2694 14.6596C21.9607 14.6596 15.2253 21.3955 15.2253 29.7037C15.2253 38.0124 21.9607 44.7478 30.2694 44.7478C38.5778 44.7478 45.3135 38.0124 45.3135 29.7037C45.3135 21.3953 38.5778 14.6596 30.2694 14.6596ZM30.2694 39.4692C24.8761 39.4692 20.5039 35.097 20.5039 29.7037C20.5039 24.3105 24.8761 19.9382 30.2694 19.9382C35.6626 19.9382 40.0349 24.3105 40.0349 29.7037C40.0349 35.097 35.6626 39.4692 30.2694 39.4692ZM49.4232 14.0652C49.4232 16.007 47.8494 17.5808 45.9076 17.5808C43.9661 17.5808 42.3921 16.007 42.3921 14.0652C42.3921 12.1237 43.9661 10.5497 45.9076 10.5497C47.8494 10.5497 49.4232 12.1237 49.4232 14.0652Z" fill="#F2F2F2"/>
</svg>
