<svg width="55" height="56" viewBox="0 0 55 56" fill="none" xmlns="http://www.w3.org/2000/svg">
<g clip-path="url(#clip0_763_1691)">
<path d="M46.8028 47.6762H38.6639V34.9299C38.6639 31.8905 38.6096 27.9778 34.4308 27.9778C30.1917 27.9778 29.5431 31.2895 29.5431 34.7087V47.6753H21.4044V21.464H29.2176V25.0461H29.327C30.1089 23.7091 31.2388 22.6092 32.5964 21.8636C33.954 21.118 35.4884 20.7545 37.0362 20.812C45.2854 20.812 46.8063 26.2381 46.8063 33.297L46.8028 47.6762ZM12.2207 17.8813C9.61213 17.8818 7.49709 15.7674 7.49666 13.1588C7.49623 10.5503 9.61041 8.43523 12.219 8.4348C14.8275 8.43415 16.9426 10.5485 16.943 13.1571C16.9432 14.4098 16.4458 15.6112 15.5602 16.4972C14.6746 17.3832 13.4734 17.881 12.2207 17.8813ZM16.2903 47.6764H8.14274V21.464H16.29V47.6762L16.2903 47.6764ZM50.8604 0.876068H4.05299C1.84075 0.851178 0.0265478 2.62333 -0.000488281 4.83557V51.8382C0.0256895 54.0515 1.83968 55.8254 4.05278 55.8022H50.8604C53.0782 55.8297 54.8993 54.0558 54.93 51.8382V4.83192C54.8984 2.61539 53.0771 0.843453 50.8604 0.87242" fill="#F2F2F2"/>
</g>
<defs>
<clipPath id="clip0_763_1691">
<rect width="54.9304" height="54.9304" fill="white" transform="translate(0 0.872314)"/>
</clipPath>
</defs>
</svg>
