<svg width="151" height="53" viewBox="0 0 151 53" fill="none" xmlns="http://www.w3.org/2000/svg">
<g clip-path="url(#clip0_762_1525)">
<path d="M21.5671 27.0434C24.8656 30.3419 31.5955 28.3362 25.373 34.9332C24.1527 36.226 22.4249 36.963 20.6488 36.8905C12.1186 36.5764 9.46048 27.14 14.3901 22.7662C20.0568 17.7399 18.3773 23.8415 21.5671 27.0313V27.0434Z" fill="white"/>
<path d="M20.1656 48.7068C14.9943 48.7068 9.82302 46.7374 5.89623 42.8106C2.09026 39.0046 0 33.9421 0 28.5413C0 23.1767 2.10234 18.09 5.88414 14.2357C12.7228 7.30034 17.302 4.46097 20.7455 5.04093C23.9595 5.58464 25.4577 8.72607 27.0405 12.0729C28.0071 14.1028 28.9978 16.193 30.4115 17.8362C32.0426 19.7332 34.0483 21.1468 35.9936 22.5C39.0021 24.6145 41.8535 26.6202 42.1314 29.967C42.4093 33.2897 40.0533 37.2527 34.4591 42.8106C30.5081 46.7374 25.3369 48.7068 20.1656 48.7068ZM19.8273 7.6749C17.3866 7.6749 13.3511 10.5143 7.81733 16.1447C1.05117 23.0196 1.05117 34.1233 7.81733 40.8895C14.6197 47.6919 25.7235 47.6919 32.5622 40.8895C37.3951 36.0807 39.6425 32.5889 39.4491 30.1965C39.2679 28.1063 37.1414 26.6202 34.447 24.7232C32.4655 23.3337 30.2302 21.7509 28.3695 19.6003C26.7143 17.6792 25.5906 15.311 24.5998 13.2328C23.2708 10.4418 22.1229 8.02529 20.3106 7.72323C20.1656 7.69906 20.0085 7.68698 19.8514 7.68698L19.8273 7.6749Z" fill="white"/>
<path d="M20.105 43.7775C16.0453 43.7775 12.2393 42.2068 9.3758 39.3312C6.51226 36.4556 4.71198 32.1905 4.80864 27.9616C4.9053 23.9623 6.53643 20.3134 9.41205 17.6795C14.3054 13.221 17.2535 11.5899 19.6217 12.0249C21.8207 12.4357 22.8235 14.4655 23.8868 16.6283C24.6359 18.1507 25.4938 19.8785 26.8591 21.2438C28.1156 22.5003 29.626 23.479 31.1 24.4215C33.6252 26.0526 36.0176 27.587 36.2834 30.2814C36.525 32.7462 34.8939 35.5373 30.9671 39.3433C28.0311 42.1826 24.1889 43.7654 20.1533 43.7775H20.105ZM18.8605 14.683C17.8335 14.683 15.6949 15.6375 11.2486 19.6972C8.91667 21.8237 7.59968 24.7839 7.52719 28.0341C7.44261 31.5259 8.82001 34.9453 11.2969 37.4221C16.2024 42.3276 24.0076 42.3155 29.0822 37.4101C32.2237 34.3653 33.734 32.0575 33.589 30.5593C33.4561 29.1698 31.68 28.0341 29.638 26.7171C28.1277 25.7505 26.412 24.651 24.9501 23.177C23.2706 21.4975 22.2678 19.4677 21.4582 17.8486C20.6729 16.2537 19.9842 14.8763 19.1263 14.7193C19.0538 14.7072 18.9692 14.6951 18.8726 14.6951L18.8605 14.683Z" fill="white"/>
<path d="M51.9664 30.4506H56.6665C56.6665 33.3745 58.8534 34.4982 61.717 34.4982C64.4234 34.4982 65.9579 33.6645 65.9579 31.6709C65.9579 29.5444 64.218 28.9645 60.3275 28.0099C55.7241 26.8863 52.7035 25.666 52.7035 21.3163C52.7035 16.9666 56.3644 15.1784 61.1612 15.1784C67.299 15.1784 69.8122 18.1024 69.8122 21.9687H65.2088C65.2088 20.108 63.7347 18.9481 60.9678 18.9481C58.938 18.9481 57.4277 19.5522 57.4277 21.268C57.4277 23.0682 58.938 23.6482 62.0553 24.4215C67.0332 25.6055 70.6338 26.6446 70.6338 31.2722C70.6338 35.5131 67.4803 38.3404 61.4391 38.3404C55.0112 38.3404 51.9543 35.3198 51.9543 30.4627L51.9664 30.4506Z" fill="white"/>
<path d="M88.4915 38.0021L86.8241 33.0241H77.8227L76.1554 38.0021H71.3345L78.4994 18.2957C79.4055 15.6859 80.5534 15.2146 82.3295 15.2146C84.1056 15.2146 85.2534 15.6979 86.1838 18.2957L93.3245 38.0021H88.5036H88.4915ZM79.1035 29.1578H85.5313L82.3174 19.4797L79.1035 29.1578Z" fill="white"/>
<path d="M112.028 15.4926H116.595V35.5615C116.595 37.3255 115.508 38.2921 113.985 38.2921C112.982 38.2921 111.992 37.7484 111.218 36.818L100.67 23.1166V38.0021H96.1033V17.9695C96.1033 16.0725 97.2269 15.2026 98.5439 15.2026C99.3776 15.2026 100.151 15.6255 100.888 16.5558L112.016 30.9943V15.4926H112.028Z" fill="white"/>
<path d="M126.201 38.0021V19.5764H119.894V15.4925H137.027V19.5764H130.756V38.0021H126.189H126.201Z" fill="white"/>
<path d="M138.078 30.7043V24.3248H140.458C142.319 24.3248 143.576 25.3518 143.576 27.5146C143.576 29.6773 142.331 30.7164 140.458 30.7043H138.078ZM138.61 30.2331H140.35C141.328 30.2331 143.044 29.8706 143.044 27.5267C143.044 25.1827 141.328 24.796 140.35 24.796H138.61V30.2331Z" fill="white"/>
<path d="M145.291 29.6532C145.883 30.076 146.62 30.3539 147.442 30.3539C148.578 30.3539 149.206 29.8344 149.206 29.0249C149.206 28.1066 148.276 27.8891 147.261 27.6958C146.548 27.5508 144.929 27.3817 144.929 26.0163C144.929 24.651 146.185 24.1919 147.176 24.1919C148.034 24.1919 148.674 24.4577 149.218 24.796L148.952 25.2189C148.336 24.8443 147.78 24.6631 147.116 24.6631C146.499 24.6631 145.448 25.0497 145.448 25.9922C145.448 26.9346 146.862 27.1038 147.732 27.2729C148.469 27.4179 149.713 27.6958 149.713 29.0369C149.713 30.2331 148.795 30.8251 147.442 30.8251C146.342 30.8251 145.605 30.511 144.989 30.076L145.255 29.6532H145.291Z" fill="white"/>
<path d="M142.863 33.2779C142.367 32.6979 141.654 32.3355 140.869 32.3355C139.383 32.3355 138.163 33.6524 138.163 35.1869C138.163 36.7214 139.298 38.0263 140.869 38.0263C142.44 38.0263 143.467 37.0114 143.467 35.6702H140.797V35.199H144.011C144.119 37.0114 142.959 38.5096 140.869 38.5096C138.996 38.5096 137.643 37.0234 137.643 35.1869C137.643 33.3504 139.081 31.8642 140.869 31.8642C141.836 31.8642 142.718 32.2992 143.286 32.9879L142.863 33.29V33.2779Z" fill="white"/>
<path d="M150.04 38.2317H149.871L145.171 33.0604V38.2317H144.639V31.8522H144.808L149.52 37.0114V31.8522H150.052V38.2317H150.04Z" fill="white"/>
</g>
<defs>
<clipPath id="clip0_762_1525">
<rect width="150.04" height="43.7384" fill="white" transform="translate(0 4.96875)"/>
</clipPath>
</defs>
</svg>
