<svg width="822" height="85" viewBox="0 0 822 85" fill="none" xmlns="http://www.w3.org/2000/svg">
<path d="M5.43608 4.45454H21.7443L38.9688 46.4773H39.7017L56.9261 4.45454H73.2344V67H60.4077V26.2905H59.8885L43.7024 66.6946H34.968L18.782 26.1378H18.2628V67H5.43608V4.45454ZM96.4015 67.8857C93.4086 67.8857 90.7415 67.3665 88.4001 66.3281C86.0587 65.2694 84.206 63.7119 82.8419 61.6555C81.4981 59.5788 80.8263 56.9931 80.8263 53.8984C80.8263 51.2924 81.3047 49.1037 82.2616 47.3324C83.2185 45.5611 84.5216 44.1359 86.1707 43.0568C87.8199 41.9777 89.693 41.1634 91.79 40.6136C93.9075 40.0639 96.1267 39.6771 98.4477 39.4531C101.176 39.1681 103.375 38.9034 105.044 38.6591C106.714 38.3944 107.925 38.0076 108.679 37.4986C109.432 36.9896 109.809 36.2363 109.809 35.2386V35.0554C109.809 33.1212 109.198 31.6248 107.976 30.566C106.775 29.5073 105.065 28.978 102.845 28.978C100.504 28.978 98.6411 29.4972 97.2567 30.5355C95.8722 31.5535 94.956 32.8362 94.5081 34.3835L82.4754 33.4062C83.0862 30.5559 84.2874 28.0923 86.0791 26.0156C87.8708 23.9186 90.1816 22.3101 93.0116 21.1903C95.862 20.0502 99.1603 19.4801 102.907 19.4801C105.513 19.4801 108.007 19.7855 110.389 20.3963C112.791 21.0071 114.919 21.9538 116.772 23.2365C118.645 24.5192 120.121 26.1683 121.2 28.1839C122.279 30.1792 122.818 32.5715 122.818 35.3608V67H110.48V60.495H110.114C109.361 61.9609 108.353 63.2538 107.09 64.3736C105.828 65.473 104.311 66.3383 102.54 66.9695C100.769 67.5803 98.7226 67.8857 96.4015 67.8857ZM100.127 58.907C102.041 58.907 103.731 58.5303 105.197 57.777C106.663 57.0033 107.813 55.965 108.648 54.6619C109.483 53.3589 109.9 51.8828 109.9 50.2337V45.2557C109.493 45.5204 108.933 45.7647 108.22 45.9886C107.528 46.1922 106.744 46.3857 105.869 46.5689C104.993 46.7318 104.118 46.8845 103.242 47.027C102.367 47.1491 101.573 47.2611 100.86 47.3629C99.3334 47.5869 97.9998 47.9432 96.8596 48.4318C95.7195 48.9205 94.8338 49.5821 94.2027 50.4169C93.5715 51.2313 93.2559 52.2493 93.2559 53.4709C93.2559 55.2422 93.8973 56.5961 95.1799 57.5327C96.483 58.4489 98.1321 58.907 100.127 58.907ZM132.052 67V20.0909H145.062V67H132.052ZM138.587 14.044C136.653 14.044 134.994 13.4027 133.609 12.12C132.245 10.817 131.563 9.25947 131.563 7.44744C131.563 5.65577 132.245 4.11861 133.609 2.83594C134.994 1.53291 136.653 0.881389 138.587 0.881389C140.522 0.881389 142.171 1.53291 143.535 2.83594C144.919 4.11861 145.611 5.65577 145.611 7.44744C145.611 9.25947 144.919 10.817 143.535 12.12C142.171 13.4027 140.522 14.044 138.587 14.044ZM193.653 33.4673L181.743 34.2003C181.539 33.1823 181.101 32.2661 180.43 31.4517C179.758 30.617 178.872 29.9553 177.773 29.4666C176.694 28.9576 175.401 28.7031 173.894 28.7031C171.878 28.7031 170.178 29.1307 168.794 29.9858C167.409 30.8205 166.717 31.9403 166.717 33.3452C166.717 34.465 167.165 35.4117 168.061 36.1854C168.957 36.959 170.494 37.58 172.672 38.0483L181.163 39.7585C185.723 40.6951 189.123 42.2017 191.363 44.2784C193.602 46.3551 194.722 49.0833 194.722 52.4631C194.722 55.5374 193.816 58.2351 192.004 60.5561C190.212 62.8771 187.749 64.6892 184.614 65.9922C181.498 67.2749 177.905 67.9162 173.833 67.9162C167.623 67.9162 162.676 66.6233 158.991 64.0376C155.326 61.4316 153.178 57.889 152.547 53.4098L165.343 52.7379C165.73 54.6314 166.666 56.0769 168.153 57.0746C169.639 58.0518 171.543 58.5405 173.864 58.5405C176.144 58.5405 177.976 58.1027 179.361 57.2273C180.766 56.3314 181.478 55.1811 181.498 53.7763C181.478 52.5954 180.979 51.6283 180.002 50.875C179.025 50.1013 177.518 49.5109 175.482 49.1037L167.359 47.4851C162.778 46.5689 159.367 44.9808 157.128 42.7209C154.909 40.4609 153.799 37.58 153.799 34.0781C153.799 31.0649 154.613 28.469 156.242 26.2905C157.891 24.112 160.202 22.4323 163.175 21.2514C166.168 20.0705 169.669 19.4801 173.68 19.4801C179.605 19.4801 184.267 20.7322 187.668 23.2365C191.088 25.7408 193.083 29.151 193.653 33.4673ZM221.099 84.5909V20.0909H233.925V27.9702H234.506C235.076 26.7079 235.9 25.4252 236.979 24.1222C238.079 22.7988 239.504 21.6993 241.255 20.8239C243.026 19.928 245.225 19.4801 247.852 19.4801C251.272 19.4801 254.428 20.3759 257.319 22.1676C260.21 23.9389 262.521 26.6162 264.251 30.1996C265.982 33.7625 266.847 38.2315 266.847 43.6065C266.847 48.839 266.002 53.2571 264.313 56.8608C262.643 60.4441 260.363 63.1622 257.472 65.0149C254.601 66.8473 251.384 67.7635 247.821 67.7635C245.296 67.7635 243.149 67.3461 241.377 66.5114C239.626 65.6766 238.191 64.6281 237.071 63.3658C235.951 62.0831 235.096 60.7902 234.506 59.4872H234.109V84.5909H221.099ZM233.834 43.5455C233.834 46.3348 234.221 48.7678 234.994 50.8445C235.768 52.9212 236.888 54.5398 238.354 55.7003C239.82 56.8404 241.601 57.4105 243.698 57.4105C245.816 57.4105 247.607 56.8303 249.073 55.6697C250.539 54.4889 251.649 52.8601 252.402 50.7834C253.176 48.6863 253.563 46.2737 253.563 43.5455C253.563 40.8376 253.186 38.4555 252.433 36.3991C251.679 34.3428 250.57 32.7344 249.104 31.5739C247.638 30.4134 245.836 29.8331 243.698 29.8331C241.581 29.8331 239.789 30.393 238.323 31.5128C236.878 32.6326 235.768 34.2206 234.994 36.277C234.221 38.3333 233.834 40.7562 233.834 43.5455ZM274.661 67V20.0909H287.274V28.2756H287.762C288.617 25.3641 290.053 23.1652 292.068 21.679C294.084 20.1723 296.405 19.419 299.031 19.419C299.683 19.419 300.385 19.4598 301.139 19.5412C301.892 19.6226 302.554 19.7346 303.124 19.8771V31.4212C302.513 31.2379 301.668 31.075 300.589 30.9325C299.51 30.79 298.522 30.7188 297.627 30.7188C295.713 30.7188 294.003 31.1361 292.496 31.9709C291.01 32.7853 289.829 33.9254 288.953 35.3913C288.098 36.8572 287.671 38.5471 287.671 40.4609V67H274.661ZM328.001 67.9162C323.257 67.9162 319.155 66.9084 315.694 64.8928C312.253 62.8568 309.596 60.0268 307.723 56.4027C305.85 52.7583 304.913 48.5336 304.913 43.7287C304.913 38.883 305.85 34.6482 307.723 31.0241C309.596 27.3797 312.253 24.5497 315.694 22.5341C319.155 20.4981 323.257 19.4801 328.001 19.4801C332.745 19.4801 336.837 20.4981 340.278 22.5341C343.739 24.5497 346.406 27.3797 348.28 31.0241C350.153 34.6482 351.089 38.883 351.089 43.7287C351.089 48.5336 350.153 52.7583 348.28 56.4027C346.406 60.0268 343.739 62.8568 340.278 64.8928C336.837 66.9084 332.745 67.9162 328.001 67.9162ZM328.062 57.8381C330.22 57.8381 332.022 57.2273 333.468 56.0057C334.913 54.7637 336.003 53.0739 336.736 50.9361C337.489 48.7983 337.865 46.3653 337.865 43.6371C337.865 40.9089 337.489 38.4759 336.736 36.3381C336.003 34.2003 334.913 32.5104 333.468 31.2685C332.022 30.0265 330.22 29.4055 328.062 29.4055C325.884 29.4055 324.051 30.0265 322.565 31.2685C321.099 32.5104 319.99 34.2003 319.236 36.3381C318.503 38.4759 318.137 40.9089 318.137 43.6371C318.137 46.3653 318.503 48.7983 319.236 50.9361C319.99 53.0739 321.099 54.7637 322.565 56.0057C324.051 57.2273 325.884 57.8381 328.062 57.8381ZM358.689 20.0909H371.699V69.321C371.699 72.9451 370.986 75.8769 369.561 78.1165C368.136 80.3561 366.09 81.995 363.422 83.0334C360.776 84.0717 357.61 84.5909 353.925 84.5909C353.477 84.5909 353.049 84.5807 352.642 84.5604C352.214 84.5604 351.766 84.5502 351.298 84.5298V74.3601C351.644 74.3804 351.95 74.3906 352.214 74.3906C352.459 74.411 352.723 74.4212 353.008 74.4212C355.105 74.4212 356.571 73.9732 357.406 73.0774C358.261 72.2019 358.689 70.8786 358.689 69.1072V20.0909ZM365.163 14.044C363.249 14.044 361.6 13.4027 360.216 12.12C358.831 10.817 358.139 9.25947 358.139 7.44744C358.139 5.65577 358.831 4.11861 360.216 2.83594C361.6 1.53291 363.249 0.881389 365.163 0.881389C367.118 0.881389 368.777 1.53291 370.141 2.83594C371.526 4.11861 372.218 5.65577 372.218 7.44744C372.218 9.25947 371.526 10.817 370.141 12.12C368.777 13.4027 367.118 14.044 365.163 14.044ZM402.638 67.9162C397.813 67.9162 393.66 66.9389 390.178 64.9844C386.717 63.0095 384.05 60.2202 382.177 56.6165C380.303 52.9924 379.367 48.7067 379.367 43.7592C379.367 38.9339 380.303 34.6991 382.177 31.0547C384.05 27.4103 386.686 24.5701 390.086 22.5341C393.507 20.4981 397.518 19.4801 402.119 19.4801C405.214 19.4801 408.095 19.9789 410.762 20.9766C413.449 21.9538 415.791 23.4299 417.786 25.4048C419.802 27.3797 421.369 29.8636 422.489 32.8565C423.609 35.8291 424.169 39.3106 424.169 43.3011V46.8743H384.559V38.8118H411.922C411.922 36.9387 411.515 35.2794 410.701 33.8338C409.886 32.3883 408.756 31.2583 407.311 30.4439C405.886 29.6091 404.226 29.1918 402.333 29.1918C400.358 29.1918 398.607 29.6499 397.08 30.566C395.573 31.4619 394.392 32.6733 393.537 34.2003C392.682 35.7069 392.245 37.3866 392.224 39.2393V46.9048C392.224 49.2259 392.652 51.2313 393.507 52.9212C394.382 54.611 395.614 55.9141 397.202 56.8303C398.79 57.7464 400.673 58.2045 402.852 58.2045C404.298 58.2045 405.621 58.0009 406.822 57.5938C408.023 57.1866 409.052 56.5758 409.907 55.7614C410.762 54.947 411.413 53.9493 411.861 52.7685L423.894 53.5625C423.283 56.4536 422.031 58.9782 420.137 61.1364C418.264 63.2741 415.842 64.9437 412.869 66.1449C409.917 67.3258 406.507 67.9162 402.638 67.9162ZM456.75 20.0909V29.8636H428.5V20.0909H456.75ZM434.914 8.85227H447.924V52.5852C447.924 53.7865 448.107 54.723 448.474 55.3949C448.84 56.0464 449.349 56.5045 450 56.7692C450.672 57.0339 451.446 57.1662 452.322 57.1662C452.932 57.1662 453.543 57.1153 454.154 57.0135C454.765 56.8913 455.233 56.7997 455.559 56.7386L457.605 66.4197C456.953 66.6233 456.037 66.8575 454.856 67.1222C453.675 67.4072 452.24 67.5803 450.55 67.6413C447.415 67.7635 444.666 67.3461 442.304 66.3892C439.963 65.4323 438.141 63.946 436.838 61.9304C435.535 59.9148 434.893 57.3698 434.914 54.2955V8.85227ZM485.055 67.9162C480.311 67.9162 476.209 66.9084 472.748 64.8928C469.307 62.8568 466.65 60.0268 464.777 56.4027C462.904 52.7583 461.967 48.5336 461.967 43.7287C461.967 38.883 462.904 34.6482 464.777 31.0241C466.65 27.3797 469.307 24.5497 472.748 22.5341C476.209 20.4981 480.311 19.4801 485.055 19.4801C489.799 19.4801 493.891 20.4981 497.332 22.5341C500.793 24.5497 503.461 27.3797 505.334 31.0241C507.207 34.6482 508.143 38.883 508.143 43.7287C508.143 48.5336 507.207 52.7583 505.334 56.4027C503.461 60.0268 500.793 62.8568 497.332 64.8928C493.891 66.9084 489.799 67.9162 485.055 67.9162ZM485.116 57.8381C487.275 57.8381 489.076 57.2273 490.522 56.0057C491.967 54.7637 493.057 53.0739 493.79 50.9361C494.543 48.7983 494.92 46.3653 494.92 43.6371C494.92 40.9089 494.543 38.4759 493.79 36.3381C493.057 34.2003 491.967 32.5104 490.522 31.2685C489.076 30.0265 487.275 29.4055 485.116 29.4055C482.938 29.4055 481.105 30.0265 479.619 31.2685C478.153 32.5104 477.044 34.2003 476.29 36.3381C475.557 38.4759 475.191 40.9089 475.191 43.6371C475.191 46.3653 475.557 48.7983 476.29 50.9361C477.044 53.0739 478.153 54.7637 479.619 56.0057C481.105 57.2273 482.938 57.8381 485.116 57.8381ZM554.773 33.4673L542.862 34.2003C542.659 33.1823 542.221 32.2661 541.549 31.4517C540.877 30.617 539.991 29.9553 538.892 29.4666C537.813 28.9576 536.52 28.7031 535.013 28.7031C532.998 28.7031 531.298 29.1307 529.913 29.9858C528.529 30.8205 527.837 31.9403 527.837 33.3452C527.837 34.465 528.285 35.4117 529.18 36.1854C530.076 36.959 531.613 37.58 533.792 38.0483L542.282 39.7585C546.843 40.6951 550.243 42.2017 552.482 44.2784C554.722 46.3551 555.842 49.0833 555.842 52.4631C555.842 55.5374 554.936 58.2351 553.124 60.5561C551.332 62.8771 548.868 64.6892 545.733 65.9922C542.618 67.2749 539.024 67.9162 534.952 67.9162C528.743 67.9162 523.795 66.6233 520.11 64.0376C516.445 61.4316 514.297 57.889 513.666 53.4098L526.462 52.7379C526.849 54.6314 527.786 56.0769 529.272 57.0746C530.758 58.0518 532.662 58.5405 534.983 58.5405C537.263 58.5405 539.096 58.1027 540.48 57.2273C541.885 56.3314 542.597 55.1811 542.618 53.7763C542.597 52.5954 542.099 51.6283 541.121 50.875C540.144 50.1013 538.637 49.5109 536.602 49.1037L528.478 47.4851C523.897 46.5689 520.487 44.9808 518.247 42.7209C516.028 40.4609 514.918 37.58 514.918 34.0781C514.918 31.0649 515.733 28.469 517.361 26.2905C519.011 24.112 521.321 22.4323 524.294 21.2514C527.287 20.0705 530.789 19.4801 534.8 19.4801C540.724 19.4801 545.387 20.7322 548.787 23.2365C552.207 25.7408 554.203 29.151 554.773 33.4673Z" fill="#2686F3"/>
<rect x="580" y="5" width="242" height="68" rx="34" fill="#2686F3"/>
<path d="M662.707 50V30.3636H670.569C672.013 30.3636 673.218 30.5778 674.184 31.006C675.149 31.4343 675.874 32.0288 676.36 32.7894C676.846 33.5437 677.089 34.413 677.089 35.3974C677.089 36.1644 676.935 36.8388 676.629 37.4205C676.322 37.9957 675.9 38.4687 675.363 38.8395C674.832 39.2038 674.225 39.4627 673.541 39.6161V39.8079C674.289 39.8398 674.989 40.0508 675.641 40.4407C676.299 40.8306 676.833 41.3771 677.242 42.0803C677.651 42.777 677.856 43.608 677.856 44.5732C677.856 45.6151 677.597 46.5451 677.079 47.3633C676.568 48.1751 675.81 48.8175 674.807 49.2905C673.803 49.7635 672.566 50 671.096 50H662.707ZM666.858 46.6058H670.243C671.4 46.6058 672.244 46.3853 672.774 45.9442C673.305 45.4968 673.57 44.9023 673.57 44.1609C673.57 43.6175 673.439 43.1381 673.177 42.7227C672.915 42.3072 672.541 41.9812 672.055 41.7447C671.576 41.5082 671.004 41.3899 670.339 41.3899H666.858V46.6058ZM666.858 38.5806H669.936C670.505 38.5806 671.01 38.4815 671.451 38.2834C671.898 38.0788 672.25 37.7912 672.506 37.4205C672.768 37.0497 672.899 36.6055 672.899 36.0877C672.899 35.3782 672.646 34.8061 672.141 34.3714C671.643 33.9368 670.933 33.7195 670.013 33.7195H666.858V38.5806ZM686.922 50.2876C685.407 50.2876 684.103 49.9808 683.01 49.3672C681.924 48.7472 681.086 47.8714 680.498 46.7401C679.91 45.6023 679.616 44.2567 679.616 42.7035C679.616 41.1886 679.91 39.859 680.498 38.7148C681.086 37.5707 681.914 36.679 682.982 36.0398C684.055 35.4006 685.315 35.081 686.759 35.081C687.731 35.081 688.635 35.2376 689.473 35.5508C690.316 35.8576 691.051 36.321 691.678 36.9411C692.311 37.5611 692.803 38.3409 693.154 39.2805C693.506 40.2138 693.682 41.3068 693.682 42.5597V43.6815H681.246V41.1502H689.837C689.837 40.5621 689.709 40.0412 689.453 39.5874C689.198 39.1335 688.843 38.7788 688.389 38.5231C687.942 38.261 687.421 38.13 686.826 38.13C686.206 38.13 685.657 38.2738 685.177 38.5614C684.704 38.8427 684.333 39.223 684.065 39.7024C683.796 40.1754 683.659 40.7028 683.653 41.2844V43.6911C683.653 44.4197 683.787 45.0494 684.055 45.5799C684.33 46.1104 684.717 46.5195 685.216 46.8072C685.714 47.0948 686.305 47.2386 686.989 47.2386C687.443 47.2386 687.859 47.1747 688.236 47.0469C688.613 46.919 688.936 46.7273 689.204 46.4716C689.473 46.2159 689.677 45.9027 689.818 45.532L693.596 45.7812C693.404 46.6889 693.011 47.4815 692.416 48.1591C691.828 48.8303 691.067 49.3544 690.134 49.7315C689.207 50.1023 688.137 50.2876 686.922 50.2876ZM700.162 41.4858V50H696.077V30.3636H700.047V37.8711H700.219C700.552 37.0018 701.089 36.321 701.83 35.8288C702.572 35.3303 703.502 35.081 704.62 35.081C705.643 35.081 706.535 35.3047 707.295 35.7521C708.062 36.1932 708.657 36.8292 709.079 37.6602C709.507 38.4847 709.718 39.4723 709.712 40.6229V50H705.627V41.3516C705.633 40.4439 705.403 39.7376 704.937 39.2326C704.476 38.7276 703.831 38.4751 703 38.4751C702.444 38.4751 701.952 38.5934 701.523 38.8299C701.101 39.0664 700.769 39.4116 700.526 39.8654C700.29 40.3129 700.168 40.853 700.162 41.4858ZM716.855 50.2781C715.916 50.2781 715.078 50.1151 714.343 49.7891C713.608 49.4567 713.027 48.9677 712.598 48.3221C712.177 47.6701 711.966 46.8583 711.966 45.8867C711.966 45.0685 712.116 44.3814 712.416 43.8253C712.717 43.2692 713.126 42.8217 713.643 42.483C714.161 42.1442 714.749 41.8885 715.408 41.7159C716.072 41.5433 716.769 41.4219 717.498 41.3516C718.354 41.2621 719.045 41.179 719.569 41.1023C720.093 41.0192 720.473 40.8977 720.71 40.7379C720.946 40.5781 721.065 40.3416 721.065 40.0284V39.9709C721.065 39.3636 720.873 38.8938 720.489 38.5614C720.112 38.229 719.575 38.0629 718.879 38.0629C718.143 38.0629 717.559 38.2259 717.124 38.5518C716.689 38.8714 716.402 39.2741 716.261 39.7599L712.483 39.4531C712.675 38.5582 713.052 37.7848 713.615 37.1328C714.177 36.4744 714.903 35.9695 715.791 35.6179C716.686 35.2599 717.722 35.081 718.898 35.081C719.716 35.081 720.499 35.1768 721.247 35.3686C722.001 35.5604 722.669 35.8576 723.251 36.2603C723.839 36.663 724.302 37.1808 724.641 37.8136C724.98 38.44 725.149 39.1911 725.149 40.0668V50H721.276V47.9577H721.161C720.924 48.418 720.608 48.8239 720.211 49.1754C719.815 49.5206 719.339 49.7923 718.783 49.9904C718.227 50.1822 717.584 50.2781 716.855 50.2781ZM718.025 47.4592C718.626 47.4592 719.157 47.3409 719.617 47.1044C720.077 46.8615 720.438 46.5355 720.7 46.1264C720.962 45.7173 721.093 45.2539 721.093 44.7362V43.1733C720.966 43.2564 720.79 43.3331 720.566 43.4034C720.349 43.4673 720.103 43.5281 719.828 43.5856C719.553 43.6367 719.278 43.6847 719.003 43.7294C718.728 43.7678 718.479 43.8029 718.255 43.8349C717.776 43.9052 717.357 44.017 716.999 44.1705C716.641 44.3239 716.363 44.5316 716.165 44.7937C715.967 45.0494 715.868 45.369 715.868 45.7525C715.868 46.3086 716.069 46.7337 716.472 47.0277C716.881 47.3153 717.399 47.4592 718.025 47.4592ZM732.133 41.4858V50H728.048V35.2727H731.941V37.8711H732.113C732.439 37.0146 732.986 36.337 733.753 35.8384C734.52 35.3335 735.45 35.081 736.543 35.081C737.566 35.081 738.457 35.3047 739.218 35.7521C739.979 36.1996 740.57 36.8388 740.992 37.6697C741.414 38.4943 741.625 39.4787 741.625 40.6229V50H737.54V41.3516C737.547 40.4503 737.316 39.7472 736.85 39.2422C736.383 38.7308 735.741 38.4751 734.923 38.4751C734.373 38.4751 733.887 38.5934 733.465 38.8299C733.05 39.0664 732.724 39.4116 732.487 39.8654C732.257 40.3129 732.139 40.853 732.133 41.4858ZM751.228 50.2876C749.72 50.2876 748.422 49.968 747.335 49.3288C746.255 48.6832 745.424 47.7884 744.842 46.6442C744.267 45.5 743.979 44.1832 743.979 42.6939C743.979 41.1854 744.27 39.8622 744.852 38.7244C745.44 37.5803 746.274 36.6886 747.354 36.0494C748.435 35.4038 749.72 35.081 751.209 35.081C752.494 35.081 753.619 35.3143 754.584 35.7809C755.549 36.2475 756.313 36.9027 756.875 37.7464C757.438 38.5902 757.748 39.581 757.805 40.7188H753.951C753.842 39.9837 753.555 39.3924 753.088 38.945C752.628 38.4911 752.024 38.2642 751.276 38.2642C750.643 38.2642 750.09 38.4368 749.617 38.782C749.151 39.1207 748.786 39.6161 748.524 40.2681C748.262 40.9201 748.131 41.7095 748.131 42.6364C748.131 43.576 748.259 44.375 748.515 45.0334C748.777 45.6918 749.144 46.1935 749.617 46.5387C750.09 46.8839 750.643 47.0565 751.276 47.0565C751.743 47.0565 752.161 46.9606 752.532 46.7688C752.909 46.5771 753.219 46.299 753.462 45.9347C753.711 45.5639 753.874 45.1197 753.951 44.6019H757.805C757.742 45.7269 757.435 46.7177 756.885 47.5742C756.342 48.4244 755.591 49.0891 754.632 49.5685C753.673 50.0479 752.538 50.2876 751.228 50.2876ZM766.862 50.2876C765.347 50.2876 764.043 49.9808 762.95 49.3672C761.864 48.7472 761.026 47.8714 760.438 46.7401C759.85 45.6023 759.556 44.2567 759.556 42.7035C759.556 41.1886 759.85 39.859 760.438 38.7148C761.026 37.5707 761.854 36.679 762.922 36.0398C763.995 35.4006 765.255 35.081 766.699 35.081C767.671 35.081 768.575 35.2376 769.413 35.5508C770.256 35.8576 770.992 36.321 771.618 36.9411C772.251 37.5611 772.743 38.3409 773.094 39.2805C773.446 40.2138 773.622 41.3068 773.622 42.5597V43.6815H761.186V41.1502H769.777C769.777 40.5621 769.649 40.0412 769.393 39.5874C769.138 39.1335 768.783 38.7788 768.329 38.5231C767.882 38.261 767.361 38.13 766.766 38.13C766.146 38.13 765.597 38.2738 765.117 38.5614C764.644 38.8427 764.273 39.223 764.005 39.7024C763.737 40.1754 763.599 40.7028 763.593 41.2844V43.6911C763.593 44.4197 763.727 45.0494 763.995 45.5799C764.27 46.1104 764.657 46.5195 765.156 46.8072C765.654 47.0948 766.245 47.2386 766.929 47.2386C767.383 47.2386 767.799 47.1747 768.176 47.0469C768.553 46.919 768.876 46.7273 769.144 46.4716C769.413 46.2159 769.617 45.9027 769.758 45.532L773.536 45.7812C773.344 46.6889 772.951 47.4815 772.356 48.1591C771.768 48.8303 771.007 49.3544 770.074 49.7315C769.147 50.1023 768.077 50.2876 766.862 50.2876Z" fill="#141414"/>
<circle cx="614" cy="39" r="34" fill="#4599F9"/>
<g clip-path="url(#clip0_762_1514)">
<path d="M632.667 30.6667H621V27.3334H632.667V30.6667ZM635.543 47.3334C634.807 49.495 632.162 52.3334 627.042 52.3334C621.918 52.3334 617.768 49.4517 617.768 42.875C617.768 36.3584 621.643 33.0084 626.878 33.0084C632.015 33.0084 635.152 35.9784 635.837 40.385C635.967 41.2284 636.018 42.365 635.995 43.9517H622.617C622.833 49.3034 628.422 49.4717 630.263 47.3334H635.543ZM622.733 40.6667H631.008C630.833 38.0884 629.115 36.9684 626.88 36.9684C624.437 36.9684 623.085 38.2484 622.733 40.6667ZM606.777 52.3134H596V27.3684H607.588C616.715 27.5034 616.888 36.4417 612.122 38.8784C617.89 40.9784 618.083 52.3134 606.777 52.3134ZM601 37.3334H606.973C611.153 37.3334 611.817 32.3334 606.453 32.3334H601V37.3334ZM606.652 42.3334H601V47.36H606.568C611.66 47.36 611.348 42.3334 606.652 42.3334Z" fill="#0D0D0D"/>
</g>
<defs>
<clipPath id="clip0_762_1514">
<rect width="40" height="40" fill="white" transform="translate(596 19)"/>
</clipPath>
</defs>
</svg>
