<svg width="172" height="169" viewBox="0 0 172 169" fill="none" xmlns="http://www.w3.org/2000/svg">
<g clip-path="url(#clip0_763_1688)">
<path d="M67.5214 0H14.5299C6.50526 0 0 6.50526 0 14.5299V65.4701C0 73.4947 6.50526 80 14.5299 80H67.5214C75.546 80 82.0513 73.4947 82.0513 65.4701V14.5299C82.0513 6.50526 75.546 0 67.5214 0Z" fill="#2C2C2C"/>
<path d="M18.4756 56.1007V20.9284C18.4756 20.6721 18.5857 20.5431 18.8059 20.5431C19.3924 20.5431 19.9278 20.5345 20.7355 20.5156C21.5423 20.4975 22.4138 20.4792 23.35 20.4606C24.2858 20.4424 25.2766 20.4241 26.3224 20.4055C27.3681 20.3874 28.4047 20.3783 29.4322 20.3779C32.2205 20.3779 34.569 20.7265 36.4776 21.4238C38.1994 22.0062 39.7695 22.9651 41.0738 24.2309C42.1795 25.3281 43.0339 26.6521 43.5782 28.1115C44.0931 29.5318 44.354 31.0316 44.3489 32.5424C44.3489 35.4786 43.67 37.9005 42.3123 39.808C40.9456 41.7235 39.0245 43.1739 36.808 43.9638C34.4962 44.8264 31.9272 45.1189 29.102 45.1189C28.2944 45.1189 27.7256 45.1098 27.3956 45.0914C27.0654 45.0733 26.5701 45.0641 25.9096 45.0639V56.0457C25.9192 56.113 25.913 56.1816 25.8915 56.2461C25.87 56.3106 25.8338 56.3692 25.7857 56.4172C25.7376 56.4653 25.679 56.5015 25.6145 56.523C25.55 56.5445 25.4814 56.5507 25.4141 56.5411H18.8609C18.6038 56.5411 18.4756 56.3948 18.4756 56.1007ZM25.9096 27.1482V38.62C26.386 38.657 26.8263 38.6753 27.2305 38.675H29.0469C30.3834 38.6706 31.7111 38.4586 32.9826 38.0467C34.073 37.7228 35.0474 37.0923 35.7897 36.2303C36.5052 35.3866 36.863 34.2124 36.8631 32.7076C36.8921 31.6428 36.6151 30.5921 36.0648 29.6802C35.4864 28.7983 34.6504 28.1161 33.6705 27.7262C32.3911 27.2289 31.0244 26.9949 29.6524 27.0382C28.7716 27.0382 27.9919 27.0473 27.3132 27.0656C26.6337 27.0846 26.1659 27.1121 25.9096 27.1482Z" fill="#8A8A8A"/>
<path d="M65.6311 36.534C64.5967 36.0025 63.495 35.6137 62.3561 35.3781C61.1011 35.0902 59.8181 34.9425 58.5306 34.9377C57.8342 34.9189 57.1387 35.0023 56.4665 35.1855C56.0386 35.2807 55.6583 35.5245 55.3931 35.8735C55.2137 36.1526 55.1182 36.4774 55.118 36.8092C55.128 37.1311 55.2441 37.4407 55.4482 37.6899C55.7697 38.066 56.1626 38.3747 56.604 38.5981C57.3888 39.0207 58.1975 39.3975 59.0259 39.7265C60.8732 40.3449 62.6384 41.1858 64.2825 42.2309C65.4025 42.9378 66.3293 43.9119 66.9796 45.0656C67.5265 46.1581 67.8003 47.3669 67.7778 48.5884C67.8107 50.2013 67.3498 51.7858 66.4568 53.1294C65.5007 54.4933 64.1728 55.5537 62.6312 56.1842C60.961 56.9179 58.8969 57.2849 56.439 57.2851C54.8775 57.3009 53.3186 57.1533 51.7878 56.8448C50.5818 56.6236 49.4077 56.2539 48.2926 55.7439C48.1722 55.6818 48.0721 55.5867 48.0039 55.4697C47.9356 55.3527 47.9021 55.2187 47.9073 55.0834V49.1388C47.9007 49.0806 47.91 49.0217 47.9342 48.9683C47.9585 48.915 47.9968 48.8693 48.045 48.836C48.0923 48.8093 48.1466 48.7976 48.2006 48.8026C48.2547 48.8075 48.306 48.8288 48.3477 48.8636C49.6646 49.6401 51.0945 50.2065 52.5859 50.5424C53.9005 50.8719 55.2489 51.0473 56.604 51.0653C57.8881 51.0653 58.833 50.9001 59.4387 50.5699C59.7123 50.4447 59.9437 50.2429 60.1049 49.9889C60.2661 49.7349 60.3502 49.4396 60.347 49.1388C60.347 48.6623 60.0718 48.2037 59.5214 47.7627C58.971 47.3224 57.8518 46.7903 56.1637 46.1664C54.4354 45.5649 52.7967 44.7317 51.2924 43.6896C50.2165 42.9413 49.3305 41.9516 48.7054 40.7998C48.1641 39.7152 47.8904 38.5167 47.9073 37.3046C47.9042 35.8482 48.3043 34.4194 49.0632 33.1764C49.9284 31.8076 51.1709 30.718 52.641 30.039C54.2553 29.2322 56.2735 28.8286 58.6958 28.828C60.1143 28.8166 61.5315 28.9178 62.934 29.1307C63.9497 29.2596 64.9426 29.5281 65.8847 29.9289C65.9594 29.9503 66.0281 29.9888 66.0854 30.0413C66.1427 30.0939 66.1871 30.159 66.2149 30.2316C66.2521 30.366 66.2706 30.5049 66.27 30.6444V36.2037C66.2738 36.2684 66.2605 36.333 66.2316 36.3909C66.2026 36.4489 66.1589 36.4982 66.1049 36.534C66.0313 36.5706 65.9502 36.5897 65.868 36.5897C65.7858 36.5897 65.7047 36.5706 65.6311 36.534Z" fill="#8A8A8A"/>
</g>
<g clip-path="url(#clip1_763_1688)">
<path d="M156.521 0H103.53C95.5053 0 89 6.50526 89 14.5299V65.4701C89 73.4947 95.5053 80 103.53 80H156.521C164.546 80 171.051 73.4947 171.051 65.4701V14.5299C171.051 6.50526 164.546 0 156.521 0Z" fill="#2C2C2C"/>
<path d="M128.761 48.0096H116.046L113.459 56.0459C113.424 56.1924 113.339 56.3221 113.218 56.4125C113.097 56.503 112.949 56.5485 112.799 56.5413H106.359C105.991 56.5413 105.863 56.3395 105.973 55.9358L116.982 24.2312C117.092 23.901 117.202 23.5249 117.312 23.1028C117.456 22.3684 117.53 21.622 117.532 20.8736C117.525 20.8213 117.53 20.7679 117.546 20.7178C117.563 20.6676 117.591 20.6221 117.629 20.5847C117.666 20.5473 117.712 20.5191 117.762 20.5024C117.812 20.4856 117.865 20.4808 117.918 20.4883H126.669C126.926 20.4883 127.072 20.58 127.11 20.7635L139.604 55.9908C139.715 56.3581 139.604 56.5416 139.274 56.5413H132.119C131.996 56.5549 131.872 56.5233 131.771 56.4524C131.669 56.3815 131.597 56.2761 131.568 56.156L128.761 48.0096ZM118.028 41.0743H126.724C126.504 40.3407 126.247 39.515 125.954 38.5973C125.66 37.6805 125.348 36.6989 125.018 35.6525C124.688 34.6068 124.357 33.561 124.027 32.5151C123.697 31.4693 123.394 30.4602 123.119 29.4877C122.844 28.5159 122.596 27.6261 122.376 26.8182H122.321C122.011 28.3048 121.625 29.7745 121.165 31.2216C120.651 32.8729 120.128 34.5609 119.596 36.2855C119.064 38.0108 118.541 39.6071 118.028 41.0743Z" fill="#8A8A8A"/>
<path d="M147.034 26.3229C146.473 26.3455 145.913 26.2493 145.391 26.0406C144.87 25.8319 144.398 25.5155 144.007 25.112C143.617 24.691 143.314 24.1971 143.116 23.6587C142.917 23.1202 142.827 22.5479 142.851 21.9746C142.831 21.4069 142.931 20.8414 143.144 20.315C143.358 19.7886 143.68 19.3131 144.089 18.9197C144.495 18.5303 144.974 18.2252 145.498 18.0221C146.023 17.8189 146.582 17.7218 147.144 17.7363C148.465 17.7363 149.502 18.1307 150.254 18.9197C150.634 19.3297 150.929 19.8105 151.123 20.3347C151.316 20.8589 151.404 21.4162 151.382 21.9746C151.405 22.5501 151.313 23.1245 151.109 23.6634C150.906 24.2024 150.596 24.695 150.199 25.112C149.784 25.5214 149.288 25.8404 148.743 26.0488C148.199 26.2572 147.617 26.3505 147.034 26.3229ZM143.236 55.9909V29.6805C143.236 29.3503 143.382 29.1851 143.676 29.1851H150.447C150.74 29.1851 150.887 29.3502 150.887 29.6805V55.9909C150.887 56.3582 150.74 56.5416 150.447 56.5414H143.732C143.401 56.5414 143.236 56.3579 143.236 55.9909Z" fill="#8A8A8A"/>
</g>
<g clip-path="url(#clip2_763_1688)">
<path d="M67.5214 89H14.5299C6.50526 89 0 95.5053 0 103.53V154.47C0 162.495 6.50526 169 14.5299 169H67.5214C75.546 169 82.0513 162.495 82.0513 154.47V103.53C82.0513 95.5053 75.546 89 67.5214 89Z" fill="#2C2C2C"/>
<path d="M29.7975 109.929V144.991C29.7975 145.358 29.6324 145.542 29.3022 145.541H22.6419C22.3479 145.541 22.2012 145.358 22.2017 144.991V109.929C22.2017 109.635 22.3668 109.489 22.697 109.488H29.3572C29.417 109.48 29.4779 109.485 29.5353 109.504C29.5926 109.524 29.6446 109.556 29.6873 109.598C29.7301 109.641 29.7623 109.693 29.7814 109.751C29.8005 109.808 29.806 109.869 29.7975 109.929Z" fill="#8A8A8A"/>
<path d="M49.5033 146.092C46.9698 146.13 44.4596 145.604 42.1551 144.551C40.0083 143.557 38.2137 141.935 37.0087 139.9C35.7607 137.827 35.1368 135.231 35.1372 132.111C35.1164 129.585 35.762 127.098 37.0087 124.9C38.2928 122.662 40.1813 120.831 42.4579 119.616C44.8427 118.295 47.7232 117.635 51.0995 117.635C51.2827 117.635 51.5212 117.644 51.815 117.662C52.1083 117.681 52.4569 117.709 52.8609 117.745V106.901C52.8609 106.645 52.971 106.516 53.1912 106.516H60.1265C60.1713 106.51 60.2171 106.514 60.2601 106.528C60.3031 106.543 60.3421 106.567 60.3742 106.599C60.4063 106.631 60.4304 106.67 60.4447 106.713C60.4591 106.756 60.4632 106.802 60.4568 106.846V139.377C60.4568 140.001 60.4843 140.68 60.5393 141.413C60.5944 142.148 60.6403 142.808 60.677 143.395C60.6838 143.509 60.6558 143.623 60.5969 143.721C60.538 143.819 60.4507 143.897 60.3467 143.945C58.5575 144.691 56.6939 145.245 54.7874 145.596C53.0443 145.918 51.2759 146.084 49.5033 146.092ZM52.8608 139.267V124.24C52.5633 124.159 52.2596 124.104 51.9527 124.075C51.5778 124.037 51.2011 124.019 50.8243 124.02C49.4886 124.006 48.1686 124.308 46.9713 124.9C45.8052 125.48 44.8095 126.353 44.0816 127.432C43.3291 128.533 42.953 129.983 42.9532 131.781C42.9264 132.981 43.1223 134.175 43.5311 135.303C43.8638 136.213 44.3896 137.039 45.0724 137.725C45.726 138.357 46.5174 138.828 47.3841 139.101C48.2996 139.398 49.2565 139.547 50.2188 139.542C50.7323 139.542 51.2093 139.523 51.6499 139.487C52.0601 139.456 52.466 139.382 52.8608 139.267Z" fill="#8A8A8A"/>
</g>
<g clip-path="url(#clip3_763_1688)">
<path d="M120.433 157C125.585 157 129.767 152.819 129.767 147.667V138.333H120.433C115.281 138.333 111.1 142.515 111.1 147.667C111.1 152.819 115.281 157 120.433 157Z" fill="#6D6D6D"/>
<path d="M111.1 129C111.1 123.848 115.281 119.667 120.433 119.667H129.767V138.333H120.433C115.281 138.333 111.1 134.152 111.1 129Z" fill="#A6A6A6"/>
<path d="M111.1 110.333C111.1 105.181 115.281 101 120.433 101H129.767V119.667H120.433C115.281 119.667 111.1 115.485 111.1 110.333Z" fill="#888888"/>
<path d="M129.767 101H139.1C144.252 101 148.433 105.181 148.433 110.333C148.433 115.485 144.252 119.667 139.1 119.667H129.767V101Z" fill="#B1B1B1"/>
<path d="M148.433 129C148.433 134.152 144.252 138.333 139.1 138.333C133.948 138.333 129.767 134.152 129.767 129C129.767 123.848 133.948 119.667 139.1 119.667C144.252 119.667 148.433 123.848 148.433 129Z" fill="#8C8C8C"/>
</g>
<defs>
<clipPath id="clip0_763_1688">
<rect width="83" height="80" fill="white"/>
</clipPath>
<clipPath id="clip1_763_1688">
<rect width="83" height="80" fill="white" transform="translate(89)"/>
</clipPath>
<clipPath id="clip2_763_1688">
<rect width="83" height="80" fill="white" transform="translate(0 89)"/>
</clipPath>
<clipPath id="clip3_763_1688">
<rect width="37.8" height="56" fill="white" transform="translate(111.1 101)"/>
</clipPath>
</defs>
</svg>
