<svg width="100" height="105" viewBox="0 0 100 105" fill="none" xmlns="http://www.w3.org/2000/svg">
<rect width="100" height="104.385" rx="50" fill="#2686F3"/>
<g clip-path="url(#clip0_762_1506)">
<path fill-rule="evenodd" clip-rule="evenodd" d="M50.9195 66.1C51.6929 65.26 52.6277 64.2845 53.6832 63.2585C56.7418 60.2846 60.9289 56.7718 65.2097 54.9882L66.2451 57.4734C62.4487 59.0553 58.559 62.2731 55.5599 65.1886C54.0751 66.6322 52.8366 67.9738 51.9701 68.9538C51.5373 69.4435 51.1981 69.8417 50.9685 70.1161C50.8536 70.2531 50.7663 70.3592 50.7083 70.4303L50.6436 70.5097L50.6284 70.5285L50.625 70.5328L49.5735 71.8472L48.5225 70.5334L48.5186 70.5285L48.5032 70.5097L48.4386 70.4303C48.3806 70.3592 48.2933 70.2531 48.1784 70.1161C47.9488 69.8417 47.6097 69.4435 47.1768 68.9538C46.3103 67.9738 45.0718 66.6322 43.587 65.1886C40.588 62.2731 36.6982 59.0553 32.9019 57.4734L33.9374 54.9882C38.2179 56.7718 42.4051 60.2846 45.4638 63.2585C46.5191 64.2845 47.4538 65.26 48.2272 66.0997V32H50.9195V66.1Z" fill="white" stroke="white" stroke-width="2.69231"/>
</g>
<defs>
<clipPath id="clip0_762_1506">
<rect width="35" height="40.3846" fill="white" transform="translate(32 32)"/>
</clipPath>
</defs>
</svg>
